<svg version="1.1" id="Layer_1" xmlns="http://www.w3.org/2000/svg" xmlns:xlink="http://www.w3.org/1999/xlink" x="0px" y="0px"
	 width="100%" viewBox="0 0 1024 1024" enable-background="new 0 0 1024 1024" xml:space="preserve">
<path fill="#64CA56" opacity="1.000000" stroke="none" 
	d="
M1025.000000,389.000000 
	C1025.000000,601.333313 1025.000000,813.166687 1025.000000,1025.000000 
	C683.666687,1025.000000 342.333344,1025.000000 1.000000,1025.000000 
	C1.000000,683.666687 1.000000,342.333344 1.000000,1.000000 
	C342.333344,1.000000 683.666687,1.000000 1025.000000,1.000000 
	C1025.000000,130.166672 1025.000000,259.333344 1025.000000,389.000000 
M851.109070,518.091675 
	C861.967468,508.029694 873.751343,498.788849 883.529419,487.768311 
	C935.106201,429.637543 955.491272,361.541046 944.512207,284.808411 
	C936.143494,226.319443 909.199280,176.853180 864.907349,137.702087 
	C808.063843,87.456291 741.412476,67.237335 666.137390,76.917007 
	C614.400513,83.569893 569.551270,105.428139 530.600342,140.163544 
	C529.107727,140.089081 527.615051,139.949554 526.122437,139.949463 
	C411.335205,139.941650 296.547974,139.943359 181.760757,139.954620 
	C178.596405,139.954926 175.417511,139.893692 172.270325,140.158005 
	C160.801620,141.121262 152.007019,150.805710 152.038177,162.283859 
	C152.069244,173.717957 160.480423,183.093430 171.865158,184.105362 
	C176.831528,184.546814 181.838196,184.701569 186.826675,184.703232 
	C286.786530,184.736298 386.746368,184.726456 486.706238,184.738022 
	C488.865723,184.738266 491.025238,184.888336 493.011414,185.658951 
	C492.585449,186.373413 492.175446,187.097977 491.731232,187.800903 
	C458.662262,240.127167 445.529327,297.052551 455.107239,358.224213 
	C468.051910,440.898621 512.324097,502.280731 585.929077,541.763123 
	C629.768677,565.279114 677.053833,573.629944 726.584534,568.060120 
	C737.285156,566.856750 747.879761,564.710205 759.520020,562.785767 
	C791.259216,562.826416 822.999084,562.985535 854.736938,562.797729 
	C860.403992,562.764160 865.227600,559.666565 868.771729,555.148254 
	C874.226440,548.194031 875.672119,540.493591 872.102600,532.242004 
	C868.094788,522.977112 860.698792,518.808777 851.109070,518.091675 
M374.500000,773.970459 
	C417.162048,773.969727 459.824127,773.974426 502.486176,773.958130 
	C505.984009,773.956787 509.508942,774.063538 512.974670,773.688843 
	C524.799561,772.410583 532.993835,763.561279 533.171875,752.130493 
	C533.356567,740.263794 525.586365,731.297424 513.534180,729.694885 
	C510.246765,729.257690 506.894257,729.160400 503.571564,729.159607 
	C396.249542,729.133423 288.927551,729.131531 181.605560,729.166870 
	C177.953629,729.168030 174.269318,729.355957 170.656128,729.859131 
	C160.024994,731.339539 152.160248,740.510071 152.041428,751.295288 
	C151.922256,762.110352 159.473618,771.480408 170.083694,773.202332 
	C174.163101,773.864380 178.370728,773.934387 182.520157,773.937256 
	C246.180084,773.981140 309.840057,773.969299 374.500000,773.970459 
M502.362061,668.712219 
	C505.185760,668.533752 508.017548,668.437744 510.831787,668.162537 
	C522.798889,666.992371 531.253296,657.515442 530.995972,645.626648 
	C530.747681,634.157288 521.756348,624.839783 510.115845,624.111450 
	C506.793671,623.903625 503.452911,623.951843 500.120697,623.951660 
	C394.303040,623.944519 288.485413,623.944214 182.667755,623.953979 
	C179.169373,623.954285 175.653992,623.872070 172.175751,624.169861 
	C160.910645,625.134277 152.176239,634.639099 152.039139,645.888000 
	C151.896957,657.553955 160.333389,667.031860 171.973373,668.130554 
	C175.780640,668.489929 179.617523,668.699036 183.440933,668.700073 
	C289.425232,668.727722 395.409515,668.719727 502.362061,668.712219 
M158.691727,872.811584 
	C164.775604,879.022705 172.562424,879.180908 180.514267,879.177734 
	C288.629120,879.134949 396.744019,879.149597 504.858887,879.141052 
	C507.523529,879.140808 510.194519,879.135498 512.851685,878.963867 
	C524.582886,878.206177 533.296326,868.581604 533.174377,856.590515 
	C533.054749,844.837585 524.308716,835.539612 512.688293,834.945923 
	C508.365570,834.725098 504.029480,834.697998 499.699493,834.697510 
	C395.082916,834.684998 290.466370,834.684937 185.849792,834.699219 
	C181.353409,834.699829 176.801010,834.455688 172.378494,835.071228 
	C168.858932,835.561157 165.101837,836.560913 162.136505,838.425720 
	C150.378647,845.819824 148.816818,860.565857 158.691727,872.811584 
M163.423264,560.289124 
	C169.419678,561.242432 175.414810,563.017639 181.412689,563.026978 
	C288.856201,563.194702 396.299988,563.150208 503.743744,563.139832 
	C506.907684,563.139526 510.085205,563.177185 513.233154,562.916565 
	C524.541016,561.980164 533.175293,552.099243 532.998596,540.443665 
	C532.825928,529.046326 524.016113,519.604248 512.794250,518.969727 
	C508.141571,518.706726 503.470459,518.697327 498.807709,518.695679 
	C448.334137,518.677856 397.860535,518.684082 347.386963,518.684570 
	C292.748901,518.685059 238.110825,518.667847 183.472809,518.718811 
	C178.490189,518.723450 173.337204,518.441895 168.562119,519.564270 
	C159.425735,521.711792 153.966568,528.154602 152.431122,537.295227 
	C150.811584,546.936584 154.666000,554.514282 163.423264,560.289124 
M697.605347,729.891357 
	C688.611328,731.690186 681.529846,738.377502 680.132019,746.930298 
	C678.580139,756.425781 681.069519,764.853699 689.592346,769.852600 
	C693.805908,772.323975 699.279114,773.728516 704.193176,773.757202 
	C752.493286,774.039185 800.795654,773.939331 849.097412,773.902954 
	C851.411804,773.901184 853.753418,773.632568 856.035583,773.226074 
	C866.570618,771.349365 874.119629,762.017334 873.958313,751.198364 
	C873.797607,740.427490 865.923645,731.357056 855.266541,729.834656 
	C852.311707,729.412598 849.303345,729.178833 846.319275,729.176270 
	C800.016174,729.135803 753.713013,729.135681 707.409912,729.175049 
	C704.425415,729.177551 701.441345,729.578369 697.605347,729.891357 
M703.938049,668.629944 
	C751.733215,668.649475 799.528442,668.676758 847.323608,668.664856 
	C849.645508,668.664307 851.971252,668.359253 854.288513,668.129211 
	C864.621826,667.103455 872.712830,659.041077 873.874756,648.642639 
	C875.000366,638.570129 868.525696,628.121460 858.967651,625.236023 
	C855.842346,624.292664 852.407837,624.042786 849.113953,624.037903 
	C800.818970,623.966431 752.523865,623.988708 704.228760,623.997192 
	C702.731079,623.997437 701.220703,623.979919 699.737732,624.153625 
	C690.638794,625.219849 684.139709,629.971191 681.093018,638.584656 
	C678.010742,647.298523 679.745544,655.271240 686.266602,662.078247 
	C690.869629,666.883118 696.717651,668.274658 703.938049,668.629944 
M799.500000,834.683960 
	C766.504028,834.758728 733.507019,834.714172 700.512573,834.979614 
	C690.409424,835.060852 681.913818,842.708435 680.083374,852.355164 
	C678.111023,862.749817 683.132202,873.218262 692.685364,877.013489 
	C696.571960,878.557556 701.105042,879.028442 705.346619,879.040344 
	C753.008667,879.174133 800.671143,879.132935 848.333557,879.097351 
	C851.153442,879.095276 854.044800,879.074097 856.780151,878.488342 
	C867.377136,876.219055 874.778137,866.039368 873.917786,855.251526 
	C873.020264,843.998169 864.310425,835.207458 852.990540,834.979553 
	C835.498840,834.627380 817.997314,834.757812 799.500000,834.683960 
z"/>
<path fill="#030403" opacity="1.000000" stroke="none" 
	d="
M758.523193,562.998108 
	C747.879761,564.710205 737.285156,566.856750 726.584534,568.060120 
	C677.053833,573.629944 629.768677,565.279114 585.929077,541.763123 
	C512.324097,502.280731 468.051910,440.898621 455.107239,358.224213 
	C445.529327,297.052551 458.662262,240.127167 491.731232,187.800903 
	C492.175446,187.097977 492.585449,186.373413 493.359253,185.128632 
	C504.718750,168.704956 516.969177,153.872223 531.235107,140.764999 
	C569.551270,105.428139 614.400513,83.569893 666.137390,76.917007 
	C741.412476,67.237335 808.063843,87.456291 864.907349,137.702087 
	C909.199280,176.853180 936.143494,226.319443 944.512207,284.808411 
	C955.491272,361.541046 935.106201,429.637543 883.529419,487.768311 
	C873.751343,498.788849 861.967468,508.029694 850.636597,518.517578 
	C833.102844,531.715942 814.970154,542.725708 795.128906,550.547852 
	C783.152344,555.269470 770.739807,558.885376 758.523193,562.998108 
M501.646423,443.809052 
	C552.708130,526.746887 649.442444,569.052002 744.876770,550.181824 
	C877.503418,523.957703 959.719360,391.108887 924.119324,260.552765 
	C891.186096,139.777039 768.215881,66.905800 646.115356,95.809746 
	C549.003296,118.798363 476.585144,202.128937 468.178772,300.800995 
	C463.834656,351.791260 474.843903,399.309387 501.646423,443.809052 
z"/>
<path fill="#FEFFFE" opacity="1.000000" stroke="none" 
	d="
M374.000000,773.970459 
	C309.840057,773.969299 246.180084,773.981140 182.520157,773.937256 
	C178.370728,773.934387 174.163101,773.864380 170.083694,773.202332 
	C159.473618,771.480408 151.922256,762.110352 152.041428,751.295288 
	C152.160248,740.510071 160.024994,731.339539 170.656128,729.859131 
	C174.269318,729.355957 177.953629,729.168030 181.605560,729.166870 
	C288.927551,729.131531 396.249542,729.133423 503.571564,729.159607 
	C506.894257,729.160400 510.246765,729.257690 513.534180,729.694885 
	C525.586365,731.297424 533.356567,740.263794 533.171875,752.130493 
	C532.993835,763.561279 524.799561,772.410583 512.974670,773.688843 
	C509.508942,774.063538 505.984009,773.956787 502.486176,773.958130 
	C459.824127,773.974426 417.162048,773.969727 374.000000,773.970459 
z"/>
<path fill="#FEFFFD" opacity="1.000000" stroke="none" 
	d="
M501.877930,668.714905 
	C395.409515,668.719727 289.425232,668.727722 183.440933,668.700073 
	C179.617523,668.699036 175.780640,668.489929 171.973373,668.130554 
	C160.333389,667.031860 151.896957,657.553955 152.039139,645.888000 
	C152.176239,634.639099 160.910645,625.134277 172.175751,624.169861 
	C175.653992,623.872070 179.169373,623.954285 182.667755,623.953979 
	C288.485413,623.944214 394.303040,623.944519 500.120697,623.951660 
	C503.452911,623.951843 506.793671,623.903625 510.115845,624.111450 
	C521.756348,624.839783 530.747681,634.157288 530.995972,645.626648 
	C531.253296,657.515442 522.798889,666.992371 510.831787,668.162537 
	C508.017548,668.437744 505.185760,668.533752 501.877930,668.714905 
z"/>
<path fill="#FFFFFF" opacity="1.000000" stroke="none" 
	d="
M158.444321,872.548157 
	C148.816818,860.565857 150.378647,845.819824 162.136505,838.425720 
	C165.101837,836.560913 168.858932,835.561157 172.378494,835.071228 
	C176.801010,834.455688 181.353409,834.699829 185.849792,834.699219 
	C290.466370,834.684937 395.082916,834.684998 499.699493,834.697510 
	C504.029480,834.697998 508.365570,834.725098 512.688293,834.945923 
	C524.308716,835.539612 533.054749,844.837585 533.174377,856.590515 
	C533.296326,868.581604 524.582886,878.206177 512.851685,878.963867 
	C510.194519,879.135498 507.523529,879.140808 504.858887,879.141052 
	C396.744019,879.149597 288.629120,879.134949 180.514267,879.177734 
	C172.562424,879.180908 164.775604,879.022705 158.444321,872.548157 
z"/>
<path fill="#FFFFFF" opacity="1.000000" stroke="none" 
	d="
M163.090607,560.117920 
	C154.666000,554.514282 150.811584,546.936584 152.431122,537.295227 
	C153.966568,528.154602 159.425735,521.711792 168.562119,519.564270 
	C173.337204,518.441895 178.490189,518.723450 183.472809,518.718811 
	C238.110825,518.667847 292.748901,518.685059 347.386963,518.684570 
	C397.860535,518.684082 448.334137,518.677856 498.807709,518.695679 
	C503.470459,518.697327 508.141571,518.706726 512.794250,518.969727 
	C524.016113,519.604248 532.825928,529.046326 532.998596,540.443665 
	C533.175293,552.099243 524.541016,561.980164 513.233154,562.916565 
	C510.085205,563.177185 506.907684,563.139526 503.743744,563.139832 
	C396.299988,563.150208 288.856201,563.194702 181.412689,563.026978 
	C175.414810,563.017639 169.419678,561.242432 163.090607,560.117920 
z"/>
<path fill="#FEFEFD" opacity="1.000000" stroke="none" 
	d="
M530.917725,140.464264 
	C516.969177,153.872223 504.718750,168.704956 493.445923,184.783417 
	C491.025238,184.888336 488.865723,184.738266 486.706238,184.738022 
	C386.746368,184.726456 286.786530,184.736298 186.826675,184.703232 
	C181.838196,184.701569 176.831528,184.546814 171.865158,184.105362 
	C160.480423,183.093430 152.069244,173.717957 152.038177,162.283859 
	C152.007019,150.805710 160.801620,141.121262 172.270325,140.158005 
	C175.417511,139.893692 178.596405,139.954926 181.760757,139.954620 
	C296.547974,139.943359 411.335205,139.941650 526.122437,139.949463 
	C527.615051,139.949554 529.107727,140.089081 530.917725,140.464264 
z"/>
<path fill="#FEFFFE" opacity="1.000000" stroke="none" 
	d="
M698.031189,729.842651 
	C701.441345,729.578369 704.425415,729.177551 707.409912,729.175049 
	C753.713013,729.135681 800.016174,729.135803 846.319275,729.176270 
	C849.303345,729.178833 852.311707,729.412598 855.266541,729.834656 
	C865.923645,731.357056 873.797607,740.427490 873.958313,751.198364 
	C874.119629,762.017334 866.570618,771.349365 856.035583,773.226074 
	C853.753418,773.632568 851.411804,773.901184 849.097412,773.902954 
	C800.795654,773.939331 752.493286,774.039185 704.193176,773.757202 
	C699.279114,773.728516 693.805908,772.323975 689.592346,769.852600 
	C681.069519,764.853699 678.580139,756.425781 680.132019,746.930298 
	C681.529846,738.377502 688.611328,731.690186 698.031189,729.842651 
z"/>
<path fill="#FEFFFD" opacity="1.000000" stroke="none" 
	d="
M703.484253,668.593018 
	C696.717651,668.274658 690.869629,666.883118 686.266602,662.078247 
	C679.745544,655.271240 678.010742,647.298523 681.093018,638.584656 
	C684.139709,629.971191 690.638794,625.219849 699.737732,624.153625 
	C701.220703,623.979919 702.731079,623.997437 704.228760,623.997192 
	C752.523865,623.988708 800.818970,623.966431 849.113953,624.037903 
	C852.407837,624.042786 855.842346,624.292664 858.967651,625.236023 
	C868.525696,628.121460 875.000366,638.570129 873.874756,648.642639 
	C872.712830,659.041077 864.621826,667.103455 854.288513,668.129211 
	C851.971252,668.359253 849.645508,668.664307 847.323608,668.664856 
	C799.528442,668.676758 751.733215,668.649475 703.484253,668.593018 
z"/>
<path fill="#FFFFFF" opacity="1.000000" stroke="none" 
	d="
M800.000000,834.683777 
	C817.997314,834.757812 835.498840,834.627380 852.990540,834.979553 
	C864.310425,835.207458 873.020264,843.998169 873.917786,855.251526 
	C874.778137,866.039368 867.377136,876.219055 856.780151,878.488342 
	C854.044800,879.074097 851.153442,879.095276 848.333557,879.097351 
	C800.671143,879.132935 753.008667,879.174133 705.346619,879.040344 
	C701.105042,879.028442 696.571960,878.557556 692.685364,877.013489 
	C683.132202,873.218262 678.111023,862.749817 680.083374,852.355164 
	C681.913818,842.708435 690.409424,835.060852 700.512573,834.979614 
	C733.507019,834.714172 766.504028,834.758728 800.000000,834.683777 
z"/>
<path fill="#FDFEFD" opacity="1.000000" stroke="none" 
	d="
M759.021606,562.891968 
	C770.739807,558.885376 783.152344,555.269470 795.128906,550.547852 
	C814.970154,542.725708 833.102844,531.715942 850.482605,518.812744 
	C860.698792,518.808777 868.094788,522.977112 872.102600,532.242004 
	C875.672119,540.493591 874.226440,548.194031 868.771729,555.148254 
	C865.227600,559.666565 860.403992,562.764160 854.736938,562.797729 
	C822.999084,562.985535 791.259216,562.826416 759.021606,562.891968 
z"/>
<path fill="#FEFEFE" opacity="1.000000" stroke="none" 
	d="
M501.432526,443.513489 
	C474.843903,399.309387 463.834656,351.791260 468.178772,300.800995 
	C476.585144,202.128937 549.003296,118.798363 646.115356,95.809746 
	C768.215881,66.905800 891.186096,139.777039 924.119324,260.552765 
	C959.719360,391.108887 877.503418,523.957703 744.876770,550.181824 
	C649.442444,569.052002 552.708130,526.746887 501.432526,443.513489 
M535.794006,329.656647 
	C536.479370,336.105377 536.855652,342.604431 537.896423,348.995300 
	C553.891541,447.216919 654.215759,508.912750 748.990417,478.879608 
	C830.596680,453.019409 878.359680,370.371613 860.165344,286.505371 
	C840.610291,196.366943 748.610840,139.656677 659.524414,162.826218 
	C583.468506,182.606766 533.439575,249.672028 535.794006,329.656647 
z"/>
<path fill="#010101" opacity="1.000000" stroke="none" 
	d="
M535.780518,329.191681 
	C533.439575,249.672028 583.468506,182.606766 659.524414,162.826218 
	C748.610840,139.656677 840.610291,196.366943 860.165344,286.505371 
	C878.359680,370.371613 830.596680,453.019409 748.990417,478.879608 
	C654.215759,508.912750 553.891541,447.216919 537.896423,348.995300 
	C536.855652,342.604431 536.479370,336.105377 535.780518,329.191681 
M587.139771,371.305298 
	C612.683289,425.053375 667.578064,452.650726 725.757874,440.992981 
	C793.411987,427.436859 836.500854,358.691956 819.148621,291.995361 
	C802.651855,228.586670 739.884094,190.041214 674.285095,203.034973 
	C598.751770,217.996536 555.602112,300.740204 587.139771,371.305298 
z"/>
<path fill="#FAFAFA" opacity="1.000000" stroke="none" 
	d="
M587.025330,370.944397 
	C555.602112,300.740204 598.751770,217.996536 674.285095,203.034973 
	C739.884094,190.041214 802.651855,228.586670 819.148621,291.995361 
	C836.500854,358.691956 793.411987,427.436859 725.757874,440.992981 
	C667.578064,452.650726 612.683289,425.053375 587.025330,370.944397 
M765.203918,410.774200 
	C802.842346,382.164124 819.014648,337.827789 807.512817,294.784790 
	C791.986694,236.682098 733.037598,201.510193 674.274780,215.288544 
	C614.722961,229.251923 577.491028,288.466461 591.578796,346.810181 
	C610.026917,423.211639 699.674194,456.544128 765.203918,410.774200 
z"/>
<path fill="#010101" opacity="1.000000" stroke="none" 
	d="
M764.892700,410.954956 
	C699.674194,456.544128 610.026917,423.211639 591.578796,346.810181 
	C577.491028,288.466461 614.722961,229.251923 674.274780,215.288544 
	C733.037598,201.510193 791.986694,236.682098 807.512817,294.784790 
	C819.014648,337.827789 802.842346,382.164124 764.892700,410.954956 
M683.174438,288.380249 
	C686.346741,276.248993 681.892761,264.601440 671.553040,257.989227 
	C661.178101,251.354507 647.425354,252.037338 637.911255,259.659607 
	C628.681335,267.054199 625.150085,279.380402 629.156738,290.218536 
	C633.118225,300.934418 643.582092,308.136658 655.460083,308.322876 
	C668.146851,308.521790 677.944153,301.711151 683.174438,288.380249 
z"/>
<path fill="#FDFDFD" opacity="1.000000" stroke="none" 
	d="
M683.084229,288.781433 
	C677.944153,301.711151 668.146851,308.521790 655.460083,308.322876 
	C643.582092,308.136658 633.118225,300.934418 629.156738,290.218536 
	C625.150085,279.380402 628.681335,267.054199 637.911255,259.659607 
	C647.425354,252.037338 661.178101,251.354507 671.553040,257.989227 
	C681.892761,264.601440 686.346741,276.248993 683.084229,288.781433 
z"/>
</svg>