<?xml version="1.0" encoding="UTF-8"?>
<svg version="1.1" xmlns="http://www.w3.org/2000/svg" width="1024" height="1024">
<path d="M0 0 C337.92 0 675.84 0 1024 0 C1024 337.92 1024 675.84 1024 1024 C686.08 1024 348.16 1024 0 1024 C0 686.08 0 348.16 0 0 Z " fill="#FEFEFE" transform="translate(0,0)"/>
<path d="M0 0 C2.9595195 0.01069823 5.9184288 0.00006116 8.87792969 -0.01269531 C19.95539338 -0.02091671 30.64910058 0.51800639 41.59667969 2.26074219 C42.42377441 2.38642578 43.25086914 2.51210937 44.10302734 2.64160156 C53.45658596 4.13746284 62.58096093 6.36313017 71.59667969 9.26074219 C72.42554688 9.52483887 73.25441406 9.78893555 74.10839844 10.06103516 C101.97178849 19.04906522 126.6773023 32.05427699 149.59667969 50.26074219 C150.4286084 50.91695557 150.4286084 50.91695557 151.27734375 51.58642578 C165.50756283 62.90925644 178.61895862 75.90842674 189.37011719 90.58984375 C190.58325535 92.24245473 191.82206881 93.87298588 193.06542969 95.50292969 C211.00740816 119.39364242 223.33294709 147.18727271 230.78417969 176.01074219 C231.02225342 176.9134082 231.26032715 177.81607422 231.50561523 178.74609375 C235.73809977 195.83031803 237.1835199 213.02139435 237.09667969 230.57324219 C237.09524963 231.5176416 237.09381958 232.46204102 237.09234619 233.43505859 C237.00069317 258.10370238 233.85464432 281.90264333 225.59667969 305.26074219 C225.19860107 306.4315332 225.19860107 306.4315332 224.79248047 307.62597656 C216.84416841 330.98156657 205.72248468 352.71016851 190.59667969 372.26074219 C189.97535156 373.07414062 189.35402344 373.88753906 188.71386719 374.72558594 C183.37309247 381.56912925 177.57669713 387.97598652 171.59667969 394.26074219 C170.7877124 395.11273193 170.7877124 395.11273193 169.96240234 395.98193359 C161.75031778 404.56891251 153.18532976 412.24384566 143.59667969 419.26074219 C142.54996094 420.02902344 141.50324219 420.79730469 140.42480469 421.58886719 C105.18435391 446.66043167 61.36110638 464.27111745 17.70214844 464.46386719 C16.67471024 464.46956726 15.64727203 464.47526733 14.58869934 464.48114014 C12.41957614 464.49054268 10.25043896 464.49710511 8.08129883 464.50097656 C4.83159997 464.51060173 1.58255657 464.54163804 -1.66699219 464.57324219 C-56.56760973 464.85042286 -109.70349215 442.78965877 -150.40332031 406.26074219 C-151.29543213 405.46120117 -151.29543213 405.46120117 -152.20556641 404.64550781 C-159.00852673 398.51376341 -165.61627306 392.37773198 -171.40332031 385.26074219 C-172.37521817 384.11166281 -173.34796223 382.9632989 -174.32128906 381.81542969 C-182.18864768 372.44482894 -189.05660756 362.71487918 -195.40332031 352.26074219 C-195.79471191 351.62765137 -196.18610352 350.99456055 -196.58935547 350.34228516 C-203.97496852 338.31194911 -209.33069931 325.40774433 -214.40332031 312.26074219 C-214.82524658 311.17019531 -215.24717285 310.07964844 -215.68188477 308.95605469 C-218.91835734 300.27801336 -221.18647287 291.55064034 -223.09082031 282.51074219 C-223.24084503 281.80643066 -223.39086975 281.10211914 -223.54544067 280.37646484 C-229.64127039 251.62824092 -230.68396473 222.27310156 -225.40332031 193.26074219 C-225.23703125 192.33036133 -225.07074219 191.39998047 -224.89941406 190.44140625 C-216.8868118 146.98045803 -197.25153486 108.12940853 -167.49316406 75.57324219 C-165.7197519 73.61088705 -164.02181786 71.6141281 -162.34082031 69.57324219 C-159.66822392 66.43202615 -156.71205711 63.78190142 -153.56738281 61.12011719 C-152.11565955 59.87278818 -150.69339193 58.59040089 -149.30175781 57.27636719 C-117.81598132 27.62996596 -75.5668445 9.62515288 -33.40332031 2.26074219 C-32.4279834 2.07833984 -31.45264648 1.8959375 -30.44775391 1.70800781 C-20.30271284 0.00580955 -10.26401611 -0.04405157 0 0 Z " fill="#FEFEFE" transform="translate(694.4033203125,88.7392578125)"/>
<path d="M0 0 C8.29091586 6.99546026 16.4273091 14.03453537 23.25 22.5 C24.01957031 23.44359375 24.78914063 24.3871875 25.58203125 25.359375 C46.1579958 51.04633716 61.12157798 85.07075081 61.48828125 118.35546875 C61.4980751 119.09066238 61.50786896 119.82585602 61.51795959 120.58332825 C61.68453137 136.32327254 61.59627882 151.25163977 57.25 166.5 C56.80968722 168.16921582 56.36958992 169.83848849 55.9296875 171.5078125 C50.0220931 193.10719704 40.32842645 213.03562288 26.25 230.5 C25.80140625 231.056875 25.3528125 231.61375 24.890625 232.1875 C-2.35830286 265.72464198 -40.25003946 286.27930796 -83.00854492 292.11621094 C-89.54207557 292.7864041 -96.06368322 292.80350539 -102.625 292.75 C-103.32921082 292.74623352 -104.03342163 292.74246704 -104.75897217 292.73858643 C-149.24948576 292.45980326 -187.8832016 275.1008571 -219.75 244.5 C-220.3061499 243.96793945 -220.8622998 243.43587891 -221.43530273 242.88769531 C-237.21117651 227.50529448 -248.83557398 207.95169607 -256.75 187.5 C-257.1519458 186.47084473 -257.1519458 186.47084473 -257.56201172 185.42089844 C-264.79505775 166.502358 -267.11141529 147.70051017 -267.1875 127.5625 C-267.19376404 126.78498383 -267.20002808 126.00746765 -267.20648193 125.20639038 C-267.26218553 114.27766304 -266.12476694 104.17565685 -263.75 93.5 C-263.45723552 92.13830852 -263.16467418 90.77657336 -262.87231445 89.41479492 C-253.674785 47.79160691 -226.18839944 12.16046816 -190.77734375 -10.77783203 C-175.90701707 -20.22937155 -159.93746081 -27.45163909 -142.75 -31.5 C-142.05406738 -31.68046875 -141.35813477 -31.8609375 -140.64111328 -32.046875 C-92.37664664 -44.38124334 -38.47568427 -30.86749811 0 0 Z " fill="#000000" transform="translate(801.75,192.5)"/>
<path d="M0 0 C0.95596069 0.0036557 1.91192139 0.0073114 2.89685059 0.01107788 C17.53513472 0.07656639 31.75013745 0.80586967 46.1875 3.375 C47.64944298 3.6073428 49.11167218 3.83789374 50.57421875 4.06640625 C60.35489274 5.66738532 69.78473424 8.29359662 79.1875 11.375 C79.91243652 11.6117041 80.63737305 11.8484082 81.38427734 12.09228516 C111.51133608 22.12580769 139.08806542 37.77624782 163.1875 58.375 C163.94804688 59.02339844 164.70859375 59.67179687 165.4921875 60.33984375 C178.06350148 71.36619827 190.06192334 83.18602451 199.95654297 96.6953125 C201.18535707 98.3720759 202.43694508 100.02987153 203.69140625 101.6875 C219.96970658 123.49787896 231.98608538 148.49944818 240.1875 174.375 C240.56261719 175.4990625 240.93773437 176.623125 241.32421875 177.78125 C243.81708648 185.74266156 245.33469553 193.87198333 246.875 202.0625 C247.08979004 203.20340088 247.30458008 204.34430176 247.52587891 205.51977539 C249.87046158 218.44309261 250.37396099 231.00322809 250.37280273 244.10546875 C250.37497327 246.84130807 250.39313836 249.57673249 250.41210938 252.3125 C250.46572178 268.54196364 249.28283596 284.45042892 245.6875 300.3125 C245.43178223 301.44091309 245.17606445 302.56932617 244.91259766 303.73193359 C235.09428015 344.96886712 214.81157619 382.84556194 186.27734375 414.0625 C184.50393159 416.02485514 182.80599755 418.02161409 181.125 420.0625 C178.48598332 423.16298407 175.5718774 425.776714 172.47265625 428.41015625 C168.80299715 431.56543578 165.26447525 434.86418277 161.703125 438.140625 C159.59580854 440.01234086 157.47313587 441.73019662 155.1875 443.375 C156.363125 443.6225 157.53875 443.87 158.75 444.125 C166.86144519 446.22796727 170.65956807 449.32736625 175.0234375 456.3515625 C177.8569289 461.27689318 177.73390532 465.75916759 177.1875 471.375 C175.19293316 477.83566216 171.1762034 482.33393426 165.625 486.125 C162.05151991 487.95755389 158.96181009 488.49935344 154.96875 488.50630188 C154.13391083 488.51031006 153.29907166 488.51431824 152.43893433 488.51844788 C151.530961 488.51791916 150.62298767 488.51739044 149.6875 488.5168457 C148.24251633 488.52205734 148.24251633 488.52205734 146.76834106 488.52737427 C144.6742002 488.53472698 142.58005157 488.54007495 140.48590088 488.54366493 C137.15313508 488.55085539 133.8205144 488.56654711 130.48779297 488.58500671 C121.01043854 488.63731328 111.53315931 488.68530817 102.05566406 488.70092773 C96.25422678 488.71111409 90.45314938 488.74071535 84.65185547 488.78224754 C82.45787299 488.79442433 80.26383933 488.79970366 78.06982422 488.79744911 C64.64068326 488.78705787 52.22800172 489.8665854 39.14439869 492.94183636 C35.01163657 493.85663195 30.83830365 494.29189973 26.625 494.625 C25.28755737 494.73557739 25.28755737 494.73557739 23.9230957 494.84838867 C3.48532217 496.35846531 -16.57780361 495.55919281 -36.8125 492.375 C-37.67359375 492.24109863 -38.5346875 492.10719727 -39.421875 491.96923828 C-90.61117532 483.6690864 -135.67765149 457.82906329 -172.8125 422.375 C-173.82376953 421.42560547 -173.82376953 421.42560547 -174.85546875 420.45703125 C-179.99386761 415.50676599 -184.36779435 409.94332724 -188.8125 404.375 C-189.67749989 403.32348966 -190.54340715 402.2727252 -191.41015625 401.22265625 C-212.83827025 374.9860548 -228.70197687 343.25948471 -236.8125 310.375 C-237.22273983 308.87987346 -237.63430254 307.38510954 -238.046875 305.890625 C-252.80914516 250.60287499 -244.77440375 190.48335375 -220.375 139.25 C-219.87411865 138.1969165 -219.3732373 137.14383301 -218.85717773 136.05883789 C-215.76918227 129.78743276 -212.32561971 123.8704519 -208.59350586 117.96533203 C-208.13236137 117.23177994 -207.67121689 116.49822784 -207.19609833 115.7424469 C-206.07019243 113.95206373 -204.94162173 112.16335682 -203.8125 110.375 C-204.49080447 110.37613916 -205.16910893 110.37727832 -205.86796808 110.378452 C-246.06752236 110.44558252 -286.26706942 110.49705781 -326.4666684 110.52819599 C-331.29320871 110.53194812 -336.11974892 110.53583109 -340.94628906 110.53979492 C-342.38760827 110.54097532 -342.38760827 110.54097532 -343.85804504 110.54217956 C-359.41758735 110.55523438 -374.97709642 110.57888866 -390.53661901 110.60645839 C-406.50147076 110.63451045 -422.46630509 110.65117584 -438.43118048 110.65726548 C-448.28279469 110.66138234 -458.13431493 110.67438634 -467.98590022 110.6987494 C-474.74099785 110.71460411 -481.49604687 110.71940095 -488.25116175 110.71550413 C-492.14883015 110.71358218 -496.04633432 110.71653381 -499.94397354 110.73261642 C-503.51456195 110.74724182 -507.08487605 110.7479354 -510.65547723 110.73769668 C-512.55437039 110.73583391 -514.45326045 110.74874901 -516.35210657 110.76224393 C-525.34415278 110.71502904 -532.48585861 109.46651351 -539.26953125 103.1640625 C-543.87573366 97.82319996 -545.53299815 91.76380638 -545.1875 84.7890625 C-544.09862214 77.77941126 -540.34534227 73.46559281 -535.203125 68.8203125 C-527.65587854 64.25743474 -518.72240577 65.11121604 -510.22625732 65.17054749 C-508.73885371 65.17342411 -507.2514481 65.17538529 -505.76404214 65.17651361 C-502.53859183 65.18089153 -499.31324675 65.1916249 -496.0878315 65.20725441 C-490.83893384 65.23263583 -485.59005709 65.24410695 -480.34111023 65.2538147 C-473.70701271 65.26707497 -467.07294136 65.28398468 -460.43886432 65.30515092 C-447.40049969 65.34658856 -434.36221617 65.36207047 -421.3237915 65.36802673 C-419.26950065 65.36909051 -417.2152098 65.37016585 -415.16091895 65.3712526 C-412.04784746 65.37286733 -408.93477597 65.37445524 -405.82170443 65.375973 C-394.09190861 65.3817382 -382.36211604 65.3897971 -370.63232422 65.40112305 C-369.02441393 65.40266175 -369.02441393 65.40266175 -367.3840206 65.40423154 C-350.01373519 65.42190069 -332.64367731 65.47256635 -315.27349719 65.53360433 C-297.42796814 65.59536073 -279.58272411 65.6151133 -261.73709607 65.59766573 C-250.7360304 65.58836299 -239.7360818 65.61263978 -228.73521551 65.68027871 C-221.19365382 65.72364799 -213.65274655 65.72670904 -206.11111632 65.69831897 C-201.762628 65.68317859 -197.41608188 65.68575561 -193.06782341 65.73671913 C-189.08057573 65.78307582 -185.09670114 65.77801348 -181.10946432 65.73338109 C-179.67339767 65.72616043 -178.23708672 65.73725574 -176.80135974 65.76931227 C-169.50958434 65.92182361 -164.26232895 65.35941809 -158.72529341 60.52171445 C-157.22236951 59.080044 -155.77771963 57.60555161 -154.35430932 56.08559889 C-150.92580908 52.42942812 -147.08294834 49.62436932 -143 46.75 C-141.85035767 45.93245239 -141.85035767 45.93245239 -140.67749023 45.09838867 C-133.60505903 40.12681015 -126.35516076 35.59346124 -118.8125 31.375 C-117.7603833 30.77824463 -117.7603833 30.77824463 -116.68701172 30.16943359 C-100.08074236 20.81723224 -82.27003621 13.23336298 -63.8125 8.375 C-63.07418945 8.1795459 -62.33587891 7.9840918 -61.57519531 7.78271484 C-58.99185467 7.10806825 -56.40356704 6.45680659 -53.8125 5.8125 C-53.03696777 5.61430664 -52.26143555 5.41611328 -51.46240234 5.21191406 C-34.44884105 1.12973893 -17.44320573 -0.14695476 0 0 Z M-55.0625 21.4375 C-56.75101074 21.8847644 -56.75101074 21.8847644 -58.47363281 22.34106445 C-84.57626135 29.53770282 -109.90689593 41.40684919 -131.8125 57.375 C-132.3708252 57.77928223 -132.92915039 58.18356445 -133.50439453 58.60009766 C-140.75690862 63.89621721 -147.48321369 69.63280522 -154.02734375 75.77734375 C-156.51542237 78.09792198 -159.05175981 80.33758335 -161.625 82.5625 C-165.74469455 86.22608551 -169.31630117 90.11786378 -172.8125 94.375 C-173.23370117 94.87854004 -173.65490234 95.38208008 -174.08886719 95.90087891 C-215.23880123 145.19775535 -234.14071751 206.44788385 -229.44799805 270.38525391 C-229.079975 274.08363598 -228.48044559 277.71983457 -227.8125 281.375 C-227.6077002 282.50276855 -227.40290039 283.63053711 -227.19189453 284.79248047 C-222.61608708 309.15019004 -215.80493186 332.7001105 -203.81005859 354.55664062 C-202.76597248 356.45981082 -201.75222804 358.37750063 -200.73828125 360.296875 C-192.53782751 375.57708483 -182.38361459 389.48268292 -170.8125 402.375 C-170.01295898 403.26711182 -170.01295898 403.26711182 -169.19726562 404.17724609 C-163.06552122 410.98020642 -156.92948979 417.58795275 -149.8125 423.375 C-148.66342062 424.34689786 -147.51505672 425.31964191 -146.3671875 426.29296875 C-136.99964033 434.15856119 -127.28742945 441.06491577 -116.8125 447.375 C-115.76570068 448.01066895 -115.76570068 448.01066895 -114.69775391 448.65917969 C-80.14697644 469.40718868 -40.96733874 479.77311178 -0.84448242 479.69067383 C2.35207551 479.6875226 5.54769689 479.71102387 8.74414062 479.73632812 C26.75588123 479.79161539 43.86486112 477.74066154 61.23095703 472.91650391 C63.21092456 472.36851689 65.19667887 471.84638056 67.18359375 471.32421875 C91.20781075 464.82607633 115.03209742 454.0361456 135.1875 439.375 C136.15429688 438.68019531 137.12109375 437.98539062 138.1171875 437.26953125 C157.4305107 423.09806682 175.00361532 406.73408585 189.1875 387.375 C190.239375 385.99828125 190.239375 385.99828125 191.3125 384.59375 C196.87387134 377.20755368 201.59878286 369.38740206 206.1875 361.375 C206.53312988 360.77703613 206.87875977 360.17907227 207.23486328 359.56298828 C213.32402252 348.93978331 217.93044092 337.84203057 222.1875 326.375 C222.47399414 325.60752441 222.76048828 324.84004883 223.05566406 324.04931641 C227.34767118 312.38184725 230.14912156 300.62805642 232.1875 288.375 C232.30749359 287.69830261 232.42748718 287.02160522 232.55111694 286.32440186 C234.88418824 273.0749445 235.7175325 260.19272837 235.625 246.75 C235.62162628 245.79177338 235.61825256 244.83354675 235.61477661 243.84628296 C235.53620851 228.3815417 234.71249309 213.49223525 231.1875 198.375 C230.95144043 197.35567383 230.71538086 196.33634766 230.47216797 195.28613281 C220.43281092 153.48460618 199.86159593 116.33235385 170.1875 85.375 C169.43364014 84.58029297 169.43364014 84.58029297 168.66455078 83.76953125 C161.26837286 76.00688642 153.52684797 69.06568237 144.92285156 62.66601562 C143.79228336 61.82492887 142.66635704 60.97755486 141.54589844 60.12304688 C113.50428213 38.74025547 80.61096293 25.20807352 46.1875 18.375 C45.29305176 18.19533691 44.39860352 18.01567383 43.47705078 17.83056641 C30.7599842 15.38454314 18.19711683 15.16028333 5.28515625 15.13476562 C2.35386941 15.1251359 -0.57669161 15.09407047 -3.5078125 15.0625 C-21.06582206 14.96265461 -38.06777969 16.90818307 -55.0625 21.4375 Z " fill="#030303" transform="translate(695.8125,73.625)"/>
<path d="M0 0 C8.29091586 6.99546026 16.4273091 14.03453537 23.25 22.5 C24.01957031 23.44359375 24.78914063 24.3871875 25.58203125 25.359375 C46.1579958 51.04633716 61.12157798 85.07075081 61.48828125 118.35546875 C61.4980751 119.09066238 61.50786896 119.82585602 61.51795959 120.58332825 C61.68453137 136.32327254 61.59627882 151.25163977 57.25 166.5 C56.80968722 168.16921582 56.36958992 169.83848849 55.9296875 171.5078125 C50.0220931 193.10719704 40.32842645 213.03562288 26.25 230.5 C25.80140625 231.056875 25.3528125 231.61375 24.890625 232.1875 C-2.35830286 265.72464198 -40.25003946 286.27930796 -83.00854492 292.11621094 C-89.54207557 292.7864041 -96.06368322 292.80350539 -102.625 292.75 C-103.32921082 292.74623352 -104.03342163 292.74246704 -104.75897217 292.73858643 C-149.24948576 292.45980326 -187.8832016 275.1008571 -219.75 244.5 C-220.3061499 243.96793945 -220.8622998 243.43587891 -221.43530273 242.88769531 C-237.21117651 227.50529448 -248.83557398 207.95169607 -256.75 187.5 C-257.1519458 186.47084473 -257.1519458 186.47084473 -257.56201172 185.42089844 C-264.79505775 166.502358 -267.11141529 147.70051017 -267.1875 127.5625 C-267.19376404 126.78498383 -267.20002808 126.00746765 -267.20648193 125.20639038 C-267.26218553 114.27766304 -266.12476694 104.17565685 -263.75 93.5 C-263.45723552 92.13830852 -263.16467418 90.77657336 -262.87231445 89.41479492 C-253.674785 47.79160691 -226.18839944 12.16046816 -190.77734375 -10.77783203 C-175.90701707 -20.22937155 -159.93746081 -27.45163909 -142.75 -31.5 C-142.05406738 -31.68046875 -141.35813477 -31.8609375 -140.64111328 -32.046875 C-92.37664664 -44.38124334 -38.47568427 -30.86749811 0 0 Z M-140.625 12.125 C-141.37475098 12.38297363 -142.12450195 12.64094727 -142.89697266 12.90673828 C-176.29899519 24.81345294 -201.44484482 48.67575523 -216.78808594 80.40087891 C-219.32544921 85.93799804 -221.16012689 91.62058691 -222.75 97.5 C-223.06839844 98.62277344 -223.38679687 99.74554688 -223.71484375 100.90234375 C-225.90806065 110.21088185 -226.06409089 119.53625819 -226.125 129.0625 C-226.13893799 130.35220703 -226.15287598 131.64191406 -226.16723633 132.97070312 C-226.10620155 145.45667513 -224.05986555 157.31858183 -219.5625 169 C-219.26134277 169.7947876 -218.96018555 170.5895752 -218.64990234 171.40844727 C-206.30929648 203.07126011 -182.51239513 226.84060446 -151.75 240.8125 C-143.92059245 244.24561821 -136.12762123 246.7175274 -127.75 248.5 C-126.22439453 248.83644531 -126.22439453 248.83644531 -124.66796875 249.1796875 C-93.22799717 255.07215971 -60.16900379 246.58017209 -33.5 229.6875 C-27.0214046 225.20434715 -21.40382716 219.95724068 -15.75 214.5 C-14.95722656 213.77039063 -14.16445313 213.04078125 -13.34765625 212.2890625 C6.8067165 193.23273115 18.53237296 164.95842268 20.25 137.5 C20.33386963 136.25186523 20.33386963 136.25186523 20.41943359 134.97851562 C22.22773082 103.64990873 12.102371 73.08589705 -8.75 49.5 C-17.16555922 40.1347803 -25.911759 31.99798431 -36.75 25.5 C-37.37036133 25.12681641 -37.99072266 24.75363281 -38.62988281 24.36914062 C-46.91439593 19.46982975 -55.38520036 15.65502131 -64.5 12.5625 C-65.73943359 12.13880127 -65.73943359 12.13880127 -67.00390625 11.70654297 C-78.74767117 7.93605467 -90.41866734 7.17461547 -102.6875 7.25 C-103.94240234 7.24226563 -105.19730469 7.23453125 -106.49023438 7.2265625 C-118.13718553 7.25058922 -129.58210019 8.24307866 -140.625 12.125 Z " fill="#010101" transform="translate(801.75,192.5)"/>
<path d="M0 0 C1.20468408 -0.00583219 2.40936816 -0.01166439 3.65055782 -0.01767331 C5.62286295 -0.01200433 5.62286295 -0.01200433 7.63501263 -0.00622082 C9.0527101 -0.0092424 10.47040594 -0.01313192 11.8880989 -0.01781338 C15.7793368 -0.02810137 19.67048264 -0.02590952 23.56172812 -0.02163279 C27.76020816 -0.01916699 31.95866596 -0.02817796 36.15713787 -0.03567028 C44.38102862 -0.0484238 52.60488672 -0.05021012 60.8287857 -0.04787002 C67.51382898 -0.04608727 74.19886236 -0.04783557 80.88390446 -0.05209446 C82.31087369 -0.05298724 82.31087369 -0.05298724 83.76667058 -0.05389806 C85.6992578 -0.05510981 87.63184501 -0.05632395 89.56443223 -0.05754044 C107.69144037 -0.06841869 125.81842992 -0.06625225 143.94543912 -0.06015559 C160.52564141 -0.05498731 177.10578493 -0.06623902 193.68597559 -0.08525381 C210.7121114 -0.10463025 227.73821942 -0.11288848 244.76436633 -0.10913056 C254.3225642 -0.10721808 263.88071207 -0.1097106 273.43890095 -0.1238451 C281.57677796 -0.13575745 289.71457419 -0.13716549 297.85245232 -0.12505493 C302.0034327 -0.11916497 306.15426531 -0.11807001 310.30523586 -0.13005733 C314.10818114 -0.14091183 317.91085519 -0.13781804 321.71378776 -0.12379565 C323.7349195 -0.11989681 325.75606327 -0.13069943 327.77716666 -0.14209253 C335.54352108 -0.09593316 342.69105434 0.29807949 349.21916485 4.86775684 C355.41949188 11.57706594 357.63108607 16.6349434 357.3871336 25.92635059 C356.50335576 32.14931523 353.70037094 36.86103924 348.94572735 40.94588184 C343.22888994 44.80474709 337.64959782 45.37694351 330.82616138 45.38869667 C329.62086061 45.39315451 328.41555983 45.39761236 327.17373478 45.40220529 C325.85818258 45.40202093 324.54263037 45.40183656 323.18721294 45.40164661 C321.76880381 45.40494832 320.35039561 45.40867453 318.9319886 45.41278809 C315.03884677 45.42278066 311.14572036 45.42652043 307.25256753 45.4291774 C303.05206511 45.43308839 298.8515748 45.44266589 294.65108013 45.45139027 C284.51182109 45.47112798 274.37256108 45.48121558 264.23328763 45.49011806 C259.45756167 45.4945037 254.68183681 45.49986963 249.90611172 45.50510693 C234.03077519 45.52211336 218.15543934 45.5366089 202.2800951 45.54385567 C198.16294256 45.54576551 194.04579002 45.54768586 189.9286375 45.54964161 C188.39371752 45.55036722 188.39371752 45.55036722 186.82778905 45.55110749 C170.24043366 45.5594131 153.65315025 45.5847616 137.06582631 45.61722229 C120.03404938 45.6502811 103.00230906 45.66830319 85.97049987 45.67149991 C76.40839569 45.67366564 66.84639661 45.68242411 57.28432369 45.70796108 C49.14384778 45.72965162 41.00350254 45.73772646 32.863001 45.7279943 C28.71006959 45.72344538 24.55740789 45.72537026 20.40451336 45.74475574 C16.60094414 45.76235737 12.79784202 45.76141445 8.99426804 45.74585845 C6.97039325 45.74235217 4.94651372 45.75853074 2.92270672 45.77546293 C-5.33555459 45.71692323 -10.90290574 44.85414938 -17.32771015 39.32478809 C-22.59235744 33.0525528 -24.61295817 28.02805848 -24.39021015 19.77400684 C-23.5246176 12.61622228 -19.55998075 8.2949958 -14.28083515 3.69978809 C-9.77808246 0.73534237 -5.3116828 0.00443621 0 0 Z " fill="#010101" transform="translate(175.08552265167236,727.7455244064331)"/>
<path d="M0 0 C1.39951187 -0.00230668 2.79902253 -0.0054846 4.19853067 -0.00945449 C8.03017768 -0.01778262 11.86172471 -0.01368625 15.69337201 -0.00748205 C19.83112586 -0.00295045 23.96886271 -0.00994484 28.10661316 -0.01544189 C36.20690687 -0.02432996 44.3071635 -0.02241649 52.40745866 -0.01661661 C58.9913942 -0.01209783 65.57531934 -0.01148816 72.15925598 -0.01366425 C73.56543662 -0.01412394 73.56543662 -0.01412394 75.00002494 -0.01459293 C76.90450983 -0.01523239 78.8089947 -0.01588082 80.71347958 -0.01653811 C98.56720869 -0.02223969 116.42091726 -0.01568621 134.274643 -0.00493738 C149.5902915 0.00399797 164.90590967 0.00244588 180.22155762 -0.0067749 C198.01188643 -0.01748057 215.80219724 -0.02169038 233.59252882 -0.01555037 C235.48996448 -0.01491328 237.38740015 -0.01428454 239.28483582 -0.01366425 C240.68515749 -0.01320142 240.68515749 -0.01320142 242.11376849 -0.01272924 C248.68895329 -0.01100319 255.26412666 -0.01391547 261.83930969 -0.01862335 C269.85345424 -0.02423547 277.86755961 -0.02270875 285.88169968 -0.01206186 C289.9697562 -0.00680963 294.05774743 -0.00474079 298.14580345 -0.01136017 C301.88997089 -0.01733098 305.63401268 -0.01402586 309.37816876 -0.00340506 C311.37011475 -0.00012193 313.3620695 -0.0066319 315.35400629 -0.01351953 C325.14561857 0.02932766 332.19385961 0.51899515 339.5267334 7.44927979 C344.34285325 12.57611705 345.67123005 17.8759893 345.5579834 24.75006104 C344.68193997 31.27964053 341.45977265 36.66577527 336.3470459 40.75396729 C328.85487837 46.14582006 320.35778684 45.54039599 311.52638245 45.5146637 C310.12360841 45.51768626 308.72083602 45.52157627 307.31806654 45.52625626 C303.47276328 45.53653139 299.62755331 45.53435569 295.78224242 45.53007567 C291.63151586 45.52760759 287.48081172 45.5366236 283.33009338 45.54411316 C275.20226062 45.55685959 267.07446089 45.55865394 258.94661982 45.5563129 C252.34025315 45.55452963 245.73389652 45.55627957 239.12753105 45.56053734 C237.71698414 45.56143012 237.71698414 45.56143012 236.27794133 45.56234094 C234.36757791 45.56355269 232.4572145 45.56476683 230.54685109 45.56598332 C212.63351682 45.5768585 194.72020137 45.57469638 176.80686604 45.56859847 C160.42004729 45.56342853 144.03328798 45.57468683 127.64648098 45.59369669 C110.81807045 45.61306912 93.98968803 45.62133219 77.16126627 45.61757344 C67.71433871 45.61566059 58.26746175 45.61815714 48.82054329 45.63228798 C40.77891382 45.64419511 32.7373661 45.64561411 24.69573552 45.63349781 C20.59347785 45.62760463 16.49136976 45.62652184 12.38912201 45.63850021 C8.63191149 45.64934357 4.8749757 45.64627424 1.11777811 45.63223853 C-0.88117984 45.62833388 -2.88014993 45.63915128 -4.87907928 45.6505354 C-14.05184037 45.59526302 -21.30586042 44.48061496 -28.23498535 38.04302979 C-32.84118776 32.70216724 -34.49845225 26.64277367 -34.1529541 19.66802979 C-33.06407624 12.65837854 -29.31079638 8.3445601 -24.1685791 3.69927979 C-16.85036279 -0.72513204 -8.24749772 -0.02851782 0 0 Z " fill="#020202" transform="translate(184.7779541015625,622.7460327148438)"/>
<path d="M0 0 C1.22172035 -0.00507454 2.44344071 -0.01014909 3.70218289 -0.0153774 C5.07030427 -0.01597913 6.43842571 -0.01647819 7.80654716 -0.01688576 C9.25037787 -0.02089893 10.69420745 -0.02533691 12.13803566 -0.03016531 C16.12002364 -0.04215309 20.10199951 -0.04778437 24.08400202 -0.05234647 C28.37319328 -0.05829431 32.66236998 -0.06990627 36.95155144 -0.08063698 C47.31791564 -0.10518098 57.68428468 -0.11979168 68.05066901 -0.13269705 C70.97772507 -0.13640772 73.90478065 -0.14038106 76.83183622 -0.14444971 C95.0007095 -0.1696865 113.16958351 -0.19174401 131.33847046 -0.20417786 C135.54876648 -0.20710766 139.75906248 -0.2100693 143.96935844 -0.21308327 C145.01583474 -0.21382932 146.06231104 -0.21457537 147.14049874 -0.21534403 C164.093484 -0.2279981 181.04636439 -0.26122051 197.99930061 -0.3028851 C215.39707419 -0.34529304 232.79479407 -0.36887164 250.1926192 -0.37409842 C259.96384266 -0.37751399 269.73490228 -0.38928619 279.50607491 -0.42220116 C287.82782322 -0.45018726 296.14937413 -0.46120738 304.47116585 -0.4500057 C308.71728732 -0.44481519 312.96299531 -0.44773088 317.20905685 -0.47247124 C321.09798393 -0.4949415 324.9862 -0.49424174 328.87513934 -0.47526737 C330.28033675 -0.47246417 331.68558213 -0.47808386 333.09070231 -0.4930803 C342.18306988 -0.58416966 348.13859157 0.21139751 354.80471432 6.57970774 C359.70285125 11.94427112 360.78312096 17.50703246 360.60314751 24.54717064 C359.76647987 31.56882435 356.63608269 36.48327824 351.27111626 40.94560814 C346.76155779 43.66382026 342.34572174 44.38752573 337.14935493 44.39986992 C335.32235349 44.41139335 335.32235349 44.41139335 333.45844293 44.42314959 C332.1152591 44.42158932 330.77207548 44.41983179 329.42889214 44.41789818 C327.99540696 44.42306878 326.56192467 44.42909602 325.12844634 44.43590498 C321.19354626 44.45201263 317.25871922 44.4556223 313.32379007 44.45709991 C309.078246 44.46080663 304.83273957 44.47590403 300.58721733 44.48937035 C291.30621069 44.51651395 282.02522136 44.52858252 272.74418163 44.53739166 C266.94789642 44.54291982 261.15161786 44.55139507 255.35533714 44.56040001 C239.30329241 44.58478121 223.25125299 44.60538139 207.19919014 44.61215019 C206.17218777 44.61258932 205.1451854 44.61302846 204.08706175 44.6134809 C202.54290369 44.61413573 202.54290369 44.61413573 200.96755052 44.61480379 C198.88156461 44.61569072 196.79557872 44.61658385 194.70959282 44.61748314 C193.67487499 44.617926 192.64015716 44.61836886 191.57408425 44.61882514 C174.80697141 44.62672165 158.04003238 44.66163311 141.27298668 44.70820218 C124.05361255 44.75564115 106.83432563 44.78055439 89.61488509 44.78288603 C79.94870836 44.78471877 70.28275819 44.79620412 60.61664391 44.83252525 C52.38614632 44.86334336 44.15594532 44.87355888 35.925401 44.85704905 C31.72754452 44.84924167 27.53028516 44.85106552 23.33250237 44.87916374 C19.48545749 44.9046784 15.63945724 44.90221782 11.79241344 44.87798232 C10.40479627 44.87407436 9.01710464 44.88019827 7.62959197 44.89767104 C-1.20663951 45.00185191 -7.82930038 44.02176585 -14.70544624 38.13701439 C-19.50082225 32.1226984 -21.14269042 26.72389853 -21.04138374 19.05498314 C-20.38464444 13.35051502 -17.88727599 9.11859972 -13.66247749 5.28154564 C-8.91803884 1.64327848 -6.04021192 0.01326623 0 0 Z " fill="#000000" transform="translate(171.70544624328613,833.8629856109619)"/>
<path d="M0 0 C1.21823696 -0.00445784 2.43647392 -0.00891569 3.69162714 -0.01350862 C5.05581833 -0.01341931 6.42000951 -0.01322944 7.78420067 -0.01294994 C9.22390638 -0.01624763 10.66361116 -0.019973 12.10331476 -0.02409142 C16.07390338 -0.03413063 20.04447688 -0.0378313 24.0150764 -0.04048073 C28.29199605 -0.04437817 32.56890367 -0.05395698 36.84581566 -0.0626936 C47.18252027 -0.08247519 57.51922588 -0.09252694 67.85594469 -0.10142139 C72.72133706 -0.10580203 77.58672833 -0.11116946 82.45211983 -0.11641026 C98.62238972 -0.1334252 114.79265893 -0.14791947 130.9629364 -0.155159 C135.16120085 -0.15706896 139.35946529 -0.15898928 143.55772972 -0.16094494 C144.6012154 -0.16142868 145.64470109 -0.16191242 146.71980755 -0.16241082 C163.62427645 -0.1707114 180.52867458 -0.19604762 197.43311258 -0.22852562 C214.78116633 -0.26158462 232.12918411 -0.27960676 249.47726953 -0.28280324 C259.22052036 -0.28496955 268.96366804 -0.29373572 278.7068882 -0.31926441 C287.00483096 -0.34095569 295.30264554 -0.34902963 303.60061343 -0.33929763 C307.83452574 -0.33474818 312.06817349 -0.33667639 316.30204964 -0.35605907 C320.17979244 -0.37365801 324.05707706 -0.37271988 327.93482451 -0.35716178 C329.33598007 -0.35478069 330.73716708 -0.35913531 332.13827451 -0.37099043 C340.40668549 -0.43660526 347.41920694 -0.43045157 353.7850796 5.51073378 C358.96422511 11.31286662 360.97403152 16.56672559 360.71251488 24.25531483 C359.87904723 30.21905907 357.67883318 35.09327234 353.07970238 39.05609608 C347.85786753 42.63386221 343.90950914 44.25659587 337.53411579 44.27402878 C336.32208797 44.27972002 335.11006016 44.28541126 333.86130422 44.29127496 C332.50929393 44.29256764 331.15728353 44.29375566 329.80527306 44.29485035 C328.37437888 44.29958047 326.94348604 44.30473127 325.51259476 44.31026798 C321.57093431 44.32418822 317.6292831 44.33176168 313.68760431 44.33824098 C310.30902341 44.34460839 306.93045773 44.35467903 303.55188631 44.36480164 C292.41922259 44.39814009 281.28654961 44.41965029 270.15385231 44.43800148 C267.25510856 44.44279606 264.35636518 44.44777944 261.45762181 44.45280671 C243.45882256 44.48377861 225.4600201 44.51046562 207.46120167 44.52722549 C203.29131057 44.53117504 199.12141953 44.53517802 194.95152855 44.53925037 C193.39690705 44.54076292 193.39690705 44.54076292 191.81087906 44.54230601 C175.02418307 44.55931039 158.23763457 44.60041626 141.45101058 44.65127336 C124.21817864 44.70305295 106.98542254 44.73216826 89.75251347 44.73942238 C80.07622184 44.74408432 70.40017167 44.75883223 60.72395706 44.79916668 C52.48241813 44.83347894 44.24116423 44.84740119 35.99955796 44.83474254 C31.7956389 44.82891833 27.59232255 44.83276213 23.38849449 44.86291218 C19.53579178 44.89031794 15.68411871 44.88974461 11.83139265 44.86740173 C10.44166173 44.86418489 9.05186132 44.87101182 7.66224568 44.88919895 C-1.18068541 44.99786778 -7.80906445 44.02585726 -14.68982887 38.13422108 C-19.48507902 32.11971612 -21.12707487 26.72124339 -21.02576637 19.05218983 C-20.36902707 13.34772171 -17.87165862 9.11580641 -13.64686012 5.27875233 C-8.90854025 1.64517734 -6.0324693 0.01019685 0 0 Z " fill="#000000" transform="translate(171.68982887268066,517.8657789230347)"/>
<path d="M0 0 C0.68852051 0.18804199 1.37704102 0.37608398 2.08642578 0.56982422 C34.22459646 9.54110571 60.76235845 30.45629497 77.33984375 59.33398438 C89.03968017 80.44455878 93.61250024 103.00302234 92 127 C91.95311035 127.74958984 91.9062207 128.49917969 91.85791016 129.27148438 C90.27740745 151.47013085 81.48021055 174.98788623 67 192 C66.29230469 192.83273437 65.58460938 193.66546875 64.85546875 194.5234375 C62.62051524 197.06760524 60.32727524 199.54018312 58 202 C57.24074219 202.82371094 56.48148438 203.64742187 55.69921875 204.49609375 C36.8650441 224.2550233 11.59943647 234.66550801 -15 239 C-16.09183594 239.18433594 -17.18367187 239.36867188 -18.30859375 239.55859375 C-49.55069044 243.29442118 -81.75437367 233.95637311 -106.59228516 214.77001953 C-132.07603854 194.68389294 -149.53918511 166.4958791 -154 134 C-154.38357463 128.84457431 -154.43116498 123.7303236 -154.375 118.5625 C-154.37034729 117.88612488 -154.36569458 117.20974976 -154.36090088 116.51287842 C-154.27943345 106.39211718 -153.85220886 96.77745842 -151 87 C-150.80664062 86.33468262 -150.61328125 85.66936523 -150.4140625 84.98388672 C-145.38618276 68.19713081 -137.26533796 53.37535364 -126 40 C-125.27039063 39.11828125 -124.54078125 38.2365625 -123.7890625 37.328125 C-105.39662535 15.9477468 -76.97037146 0.01548397 -48.66455078 -2.81689453 C-32.66412669 -3.9164289 -15.52101519 -4.39400107 0 0 Z M-66.875 13.625 C-67.63184082 13.88369873 -68.38868164 14.14239746 -69.16845703 14.40893555 C-81.75832063 18.88723572 -92.69996805 25.49067441 -103 34 C-103.99773438 34.82113281 -104.99546875 35.64226562 -106.0234375 36.48828125 C-121.81598386 49.96212095 -133.53113842 69.00827267 -139 89 C-139.31710937 90.08667969 -139.31710937 90.08667969 -139.640625 91.1953125 C-147.49570527 119.81024777 -141.02395745 149.82582235 -126.73510742 175.0769043 C-112.14127831 199.60785066 -87.55281234 217.01429068 -60.15234375 224.2265625 C-59.11207031 224.48179687 -58.07179688 224.73703125 -57 225 C-56.15566406 225.21398437 -55.31132813 225.42796875 -54.44140625 225.6484375 C-26.24696041 232.39164985 3.93799825 226.12626927 28.5 211.26953125 C33.31638743 208.22149819 37.69876879 204.73158639 42 201 C43.06203276 200.16607128 44.12447167 199.33265927 45.1875 198.5 C64.2521465 181.55364756 78.31122194 154.57292486 80 129 C81.40784111 98.40449079 74.07556614 69.32724766 53.24609375 46.0390625 C46.16699712 38.44270411 38.90164574 31.43151266 30 26 C29.23945312 25.4946875 28.47890625 24.989375 27.6953125 24.46875 C10.09523423 13.15853577 -10.04279467 8.82349878 -30.6875 8.8125 C-31.87794922 8.80025391 -33.06839844 8.78800781 -34.29492188 8.77539062 C-45.49761746 8.75711543 -56.254651 9.95653485 -66.875 13.625 Z " fill="#F9F9F9" transform="translate(730,203)"/>
<path d="M0 0 C1.54483359 -0.00214853 3.08966559 -0.00603018 4.63449097 -0.01150513 C8.81226785 -0.02116235 12.98961445 -0.00594051 17.16733932 0.01440096 C21.54913555 0.03203117 25.93091967 0.02844571 30.31274414 0.02767944 C37.66983188 0.02954984 45.02675419 0.04687795 52.38378906 0.07421875 C60.87713184 0.10566672 69.37029357 0.11621475 77.86369038 0.11474764 C86.92383979 0.11339424 95.98391987 0.12729028 105.04404831 0.14564085 C107.64689144 0.14989344 110.2497233 0.15132184 112.85256958 0.15211868 C116.95008026 0.15413534 121.04744038 0.16640805 125.14490128 0.18645096 C126.64444175 0.19226692 128.14399957 0.19475863 129.64355087 0.19359589 C149.28079042 0.18413538 149.28079042 0.18413538 156.94921875 7.50537109 C161.60409795 12.72666258 163.49094433 17.88211807 163.15625 24.89990234 C161.86055545 32.49060847 158.14913771 37.88459063 151.97265625 42.32958984 C146.82954662 44.96343146 141.73108162 45.73633364 136.01126099 45.75326538 C134.04742462 45.76606033 134.04742462 45.76606033 132.04391479 45.77911377 C130.61016834 45.77841488 129.17642197 45.7774919 127.74267578 45.77636719 C126.21931633 45.78235738 124.6959599 45.78916405 123.17260742 45.79672241 C119.04856587 45.8143383 114.9246074 45.81907588 110.80053186 45.82035398 C108.22059809 45.82177848 105.64068524 45.82605369 103.06075668 45.83134842 C94.05074479 45.84983308 85.04079195 45.85802087 76.03076172 45.85644531 C67.64702571 45.85524387 59.26354713 45.87635067 50.87987626 45.90793264 C43.66860154 45.93412504 36.45741076 45.94481139 29.24608886 45.94353449 C24.94497417 45.94302579 20.64408848 45.94865809 16.34302139 45.96989059 C12.29633235 45.98932349 8.25008962 45.98936329 4.2033844 45.97485733 C2.72359944 45.97277447 1.24378616 45.97743885 -0.23595047 45.98957825 C-9.55486056 46.06103962 -17.27612242 45.69209029 -24.625 39.52099609 C-25.15222656 38.87001953 -25.67945313 38.21904297 -26.22265625 37.54833984 C-27.04056641 36.57574219 -27.04056641 36.57574219 -27.875 35.58349609 C-31.76190908 29.80158425 -31.90896596 24.26002337 -31.28515625 17.48583984 C-29.21740443 10.84726822 -25.86556455 6.20486497 -20.06469727 2.34042358 C-13.76530612 -0.66568417 -6.81850887 -0.05512602 0 0 Z " fill="#020202" transform="translate(710.28515625,622.51416015625)"/>
<path d="M0 0 C1.30924942 -0.0071553 2.61849884 -0.01431061 3.96742249 -0.02168274 C5.42196632 -0.02452306 6.8765104 -0.02723478 8.33105469 -0.02983093 C9.86042943 -0.03609648 11.38980264 -0.04274336 12.91917419 -0.04974365 C17.94708191 -0.07078463 22.97498992 -0.08114959 28.00292969 -0.09111023 C29.73589087 -0.09515849 31.46885189 -0.09927543 33.20181274 -0.10346031 C41.34808337 -0.12251612 49.49434495 -0.13674343 57.64063358 -0.14507228 C67.0297443 -0.15483105 76.4186184 -0.18111324 85.8076458 -0.22157317 C93.0723636 -0.25179877 100.33701386 -0.26654746 107.60179329 -0.26985329 C111.93658064 -0.27219745 116.27111534 -0.28107407 120.60583496 -0.30631447 C124.69021189 -0.32971171 128.77417196 -0.33378205 132.85859871 -0.32355309 C134.35044815 -0.32306035 135.84231891 -0.32930282 137.33410454 -0.34310913 C146.68993916 -0.42478735 156.60151216 -0.41786802 163.98075867 6.12140942 C169.32703912 11.84240628 171.26654638 16.71444704 171.05761719 24.52607727 C170.18961715 31.99310321 166.65194343 36.84195502 161.14355469 41.73701477 C153.41208677 46.29757019 144.2561712 45.45082635 135.59130859 45.4535675 C134.05957133 45.46119855 132.52783787 45.46962765 130.99610901 45.47879028 C126.8534739 45.50064536 122.71091256 45.50952168 118.56822634 45.51461673 C115.97571607 45.51827009 113.38322486 45.52451511 110.79072189 45.53161812 C101.73417061 45.55607857 92.67767636 45.56915774 83.62109375 45.57270813 C75.19811119 45.57634373 66.77549291 45.60624953 58.35262167 45.64811271 C51.10394383 45.68286857 43.85538647 45.69825746 36.60662591 45.69895416 C32.28475381 45.69974498 27.96325354 45.70839401 23.64146805 45.73695183 C19.57499696 45.76322472 15.50920368 45.76528693 11.44268608 45.74929619 C9.95686165 45.74748916 8.47099737 45.75410466 6.9852581 45.7701149 C-2.94135019 45.87049904 -11.27660278 44.99019067 -18.68457031 37.77217102 C-22.98886681 30.54095291 -24.55347115 24.63337812 -23.24707031 16.14717102 C-20.52230866 8.94102482 -16.2192656 4.34337995 -9.24707031 1.14717102 C-5.9411499 0.04519755 -3.48252945 0.01304661 0 0 Z " fill="#020202" transform="translate(702.2470703125,727.8528289794922)"/>
<path d="M0 0 C0.66339221 -0.00453111 1.32678442 -0.00906223 2.01027942 -0.01373065 C4.23183843 -0.02638454 6.4531526 -0.02475366 8.67474365 -0.02310181 C10.26824763 -0.02908656 11.86174871 -0.03589198 13.45524597 -0.04345703 C17.7839361 -0.06113238 22.11254715 -0.06581313 26.44126987 -0.0670886 C29.14697911 -0.0685102 31.85266825 -0.07278002 34.5583725 -0.07808304 C44.0016355 -0.09659029 53.44484202 -0.10475302 62.88812256 -0.10317993 C71.68363794 -0.10197921 80.47890766 -0.12306612 89.2743609 -0.15466726 C96.83035441 -0.18084536 104.38626778 -0.19154654 111.94230628 -0.19026911 C116.45302192 -0.18975981 120.96351938 -0.19542488 125.47418976 -0.21662521 C129.71945709 -0.23603281 133.96429876 -0.23611499 138.20958138 -0.22159195 C139.76396114 -0.21950568 141.31836772 -0.22419396 142.87270164 -0.23631287 C150.91052325 -0.29490127 157.50438375 -0.32451726 164.38470459 4.26742554 C166.40814209 6.26742554 166.40814209 6.26742554 167.75970459 8.26742554 C168.45193115 9.25742554 168.45193115 9.25742554 169.15814209 10.26742554 C172.67757215 16.00611404 173.13823375 20.55078289 172.38470459 27.26742554 C170.2654559 34.07193213 166.0825435 38.49142288 160.18061829 42.37669373 C153.82910193 45.45011332 146.79039704 44.81666651 139.90008545 44.76913452 C138.3339235 44.77292203 136.7677649 44.77842562 135.20161438 44.7855072 C130.96607239 44.79942176 126.73093843 44.78832089 122.49541926 44.77179599 C118.05442311 44.75790385 113.61344964 44.76441021 109.17243958 44.76792908 C101.71700496 44.77062763 94.26173167 44.75718519 86.80633545 44.73397827 C78.19591863 44.707361 69.5857713 44.70562586 60.97532743 44.71736664 C52.67900274 44.72815764 44.3827752 44.7219476 36.08645821 44.70781136 C32.56149553 44.702064 29.03660424 44.70212435 25.51164055 44.70687675 C21.35909119 44.71166035 17.20683576 44.70148785 13.05434227 44.6799221 C11.5334192 44.67437322 10.01246778 44.67387146 8.49154282 44.67887497 C6.40966326 44.68486341 4.32867173 44.67225647 2.24687195 44.65510559 C1.08382003 44.6526757 -0.07923189 44.6502458 -1.27752781 44.64774227 C-9.3485034 43.72810752 -14.99128913 39.51290699 -19.99029541 33.32992554 C-22.86967802 27.78984761 -22.41504096 21.28985727 -21.61529541 15.26742554 C-19.28504924 8.90139131 -14.47615885 4.7017578 -8.84515762 1.15132713 C-5.82032265 -0.04769604 -3.25280418 0.00917755 0 0 Z " fill="#000000" transform="translate(700.6152954101563,833.7325744628906)"/>
<path d="M0 0 C6.48168895 4.62806942 11.42811118 9.9675039 13 18 C13.83151074 26.76649893 13.22603128 33.72842618 8 41 C5.87257336 43.39077314 3.64758715 45.21259939 1 47 C0.45085938 47.4125 -0.09828125 47.825 -0.6640625 48.25 C-7.30209474 52.46091032 -15.48284322 51.84689802 -23 51 C-31.65121935 48.56509131 -37.13876028 42.76648876 -41.66015625 35.234375 C-43.21355729 31.48447395 -43.5380618 28.18731985 -43.5 24.1875 C-43.49355469 23.48117432 -43.48710938 22.77484863 -43.48046875 22.04711914 C-43.1864002 13.62650494 -40.14376835 8.79931482 -34.1875 3.125 C-24.92700802 -4.27995741 -10.49900518 -6.4312088 0 0 Z " fill="#FDFDFD" transform="translate(670,256)"/>
</svg>
