<svg width="100" height="100" viewBox="0 0 100 100" fill="none" xmlns="http://www.w3.org/2000/svg">
<g clip-path="url(#clip0_7002_2)">
<path d="M40.0025 25.4671C41.3436 22.0665 46.1563 22.0665 47.4975 25.4671L51.2929 35.09C53.7496 41.3193 58.6804 46.2504 64.91 48.7071L74.5329 52.5025C77.9333 53.8437 77.9333 58.6562 74.5329 59.9975L64.91 63.7929C58.6804 66.2496 53.7496 71.1804 51.2929 77.41L47.4975 87.0329C46.1563 90.4333 41.3436 90.4333 40.0025 87.0329L36.2073 77.41C33.7504 71.1804 28.8194 66.2496 22.59 63.7929L12.9671 59.9975C9.5665 58.6562 9.5665 53.8437 12.9671 52.5025L22.59 48.7071C28.8194 46.2504 33.7504 41.3193 36.2073 35.09L40.0025 25.4671Z" stroke="#141B34" stroke-width="5.13"/>
<path d="M75.6779 11.373C76.1808 10.0978 77.9858 10.0978 78.4888 11.373L79.9117 14.9816C80.8333 17.3176 82.6825 19.1668 85.0183 20.0881L88.6271 21.5113C89.9021 22.0142 89.9021 23.819 88.6271 24.3219L85.0183 25.7452C82.6825 26.6665 80.8333 28.5156 79.9117 30.8516L78.4888 34.4602C77.9858 35.7354 76.1808 35.7354 75.6779 34.4602L74.255 30.8516C73.3333 28.5156 71.4842 26.6665 69.1483 25.7452L65.5396 24.3219C64.2646 23.819 64.2646 22.0142 65.5396 21.5113L69.1483 20.0881C71.4842 19.1668 73.3333 17.3176 74.255 14.9816L75.6779 11.373Z" stroke="#141B34" stroke-width="3.125"/>
</g>
<defs>
<clipPath id="clip0_7002_2">
<path d="M0 12C0 5.37258 5.37258 0 12 0H88C94.6274 0 100 5.37258 100 12V88C100 94.6274 94.6274 100 88 100H12C5.37258 100 0 94.6274 0 88V12Z" fill="white"/>
</clipPath>
</defs>
</svg>
