<svg width="870" height="657" viewBox="0 0 870 657" fill="none" xmlns="http://www.w3.org/2000/svg">
<path d="M677.411 251.095C692.759 251.095 700.873 243.122 700.873 228.548V161.18C700.873 104.536 670.75 76.2132 609.93 76.2132H539.262C523.912 76.2132 515.513 84.1875 515.513 98.2109C515.513 112.509 523.912 120.484 539.262 120.484H609.351C637.734 120.484 654.242 135.058 654.242 163.654V228.548C654.242 243.122 662.641 251.095 677.411 251.095ZM192.586 251.095C207.647 251.095 215.756 243.122 215.756 228.548V163.654C215.756 135.058 231.975 120.484 260.937 120.484H331.025C346.085 120.484 354.485 112.509 354.485 98.2109C354.485 84.1875 346.085 76.2132 331.025 76.2132H260.067C199.828 76.2132 169.127 104.536 169.127 161.18V228.548C169.127 243.122 177.527 251.095 192.586 251.095ZM260.067 580.787H331.025C346.085 580.787 354.485 572.812 354.485 558.789C354.485 544.491 346.085 536.517 331.025 536.517H260.937C231.975 536.517 215.756 521.943 215.756 493.346V428.453C215.756 413.879 207.357 405.905 192.586 405.905C177.236 405.905 169.127 413.879 169.127 428.453V495.546C169.127 552.464 199.828 580.787 260.067 580.787ZM539.262 580.787H609.93C670.75 580.787 700.873 552.19 700.873 495.546V428.453C700.873 413.879 692.473 405.905 677.411 405.905C662.352 405.905 654.242 413.879 654.242 428.453V493.346C654.242 521.943 637.734 536.517 609.351 536.517H539.262C523.912 536.517 515.513 544.491 515.513 558.789C515.513 572.812 523.912 580.787 539.262 580.787Z" fill="black"/>
<path d="M0 324H870" stroke="black" stroke-width="40"/>
</svg>
